Coordinates
version=1
nRows=14
nColumns=36
inDegrees=yes

Units are S.I. units (second, meters, Newtons, ...)
If the header above contains a line with 'inDegrees', this indicates whether rotational values are in degrees (yes) or radians (no).

endheader
time	pelvis_tilt	pelvis_list	pelvis_rotation	pelvis_tx	pelvis_ty	pelvis_tz	hip_flexion_r	hip_adduction_r	hip_rotation_r	knee_angle_r	knee_angle_r_beta	ankle_angle_r	subtalar_angle_r	mtp_angle_r	hip_flexion_l	hip_adduction_l	hip_rotation_l	knee_angle_l	knee_angle_l_beta	ankle_angle_l	subtalar_angle_l	mtp_angle_l	lumbar_extension	lumbar_bending	lumbar_rotation	arm_flex_r	arm_add_r	arm_rot_r	elbow_flex_r	pro_sup_r	arm_flex_l	arm_add_l	arm_rot_l	elbow_flex_l	pro_sup_l
      1.15000000	    -13.31786806	     -5.93419453	     10.83402878	     -0.13259180	      1.24825538	     -0.01352313	     17.75169644	      1.01268961	      6.38478916	     34.22463634	      0.59733259	     17.24403828	    -18.39722785	     -7.49980814	     13.33756963	     -0.91103619	     -1.26432533	     28.87395228	      0.50394554	     17.88256245	    -10.60751751	     -7.49980814	     -6.38225732	     -0.14389104	    -11.81673151	      7.66141112	    -28.65121195	     17.67482823	    114.51357080	     91.33887756	    -42.93727055	    -30.05978757	    -18.64223413	    144.13231070	    102.02012499
      1.16666670	    -12.08523001	     -5.91429928	     10.42461366	     -0.12037216	      1.27209379	     -0.01670933	     16.74407851	      0.82032885	      5.53908449	     35.78230131	      0.62451897	     13.36692528	    -19.11875064	     -7.49985194	     11.96532496	     -1.48640430	     -1.99896651	     30.26180917	      0.52816821	     14.22197687	     -9.41122288	     -7.49985194	     -6.48592626	      0.29699837	     -8.58598641	      0.82948579	    -28.41267693	     11.79702347	    115.11548335	     90.76654198	    -38.71305491	    -31.53836365	    -15.07993453	    140.92461744	    102.48887813
      1.18333330	    -10.41774191	     -5.99738981	     10.81152445	     -0.10839779	      1.28572324	     -0.01926502	     16.52325452	      0.93160943	      4.71013510	     39.66035470	      0.69220377	      8.48461592	    -18.92495134	     -7.49988133	     11.42798139	     -2.71857927	     -2.47997405	     32.78819167	      0.57226190	      8.72147010	     -9.32569784	     -7.49988133	     -7.55448502	      0.74752238	     -7.61931267	     -2.31335512	    -27.69775588	      9.82480757	    113.96285755	     90.94483669	    -36.24580418	    -32.00526644	    -13.60282405	    138.94709085	    101.45070761
      1.20000000	     -8.40301234	     -5.77179812	     11.31512331	     -0.08884773	      1.29131356	     -0.02596490	     16.25136715	      0.97251157	      3.96718837	     44.54483007	      0.77745395	      5.82411121	    -19.89573964	     -7.49989574	     12.62353126	     -3.55821098	     -1.88920637	     39.60371380	      0.69121520	      3.80708283	    -11.98495433	     -7.49989574	     -8.72779330	      0.94378307	     -7.50800141	     -4.62058016	    -27.14172135	      9.25715211	    112.99825137	     89.78426917	    -36.44671470	    -31.06245491	    -13.29954842	    138.40673659	     99.57251326
      1.21666670	     -7.16625304	     -5.82088637	     11.81274319	     -0.06986956	      1.29305377	     -0.03836555	     17.52724186	      0.97073633	      3.74047715	     49.62951102	      0.86619837	      2.36093427	    -20.51307971	     -7.49990479	     14.08216740	     -4.01181882	     -1.04227233	     44.74458941	      0.78094041	      0.79836873	    -13.73450649	     -7.49990479	     -9.80292262	      1.71101604	     -7.20270819	     -6.84876894	    -27.17030937	      8.90137401	    112.56133888	     89.09522050	    -35.92233180	    -29.40733312	    -11.76131920	    137.93929750	     98.66423732
      1.23333330	     -6.07888852	     -5.64248931	     12.21357142	     -0.05617201	      1.29856437	     -0.04099804	     19.78622001	      0.87775440	      3.99455196	     54.16878959	      0.94542373	      1.60313170	    -20.24519570	     -7.49992509	     16.91026874	     -4.43619415	     -0.68429100	     49.34510212	      0.86123450	     -1.09101486	    -15.68836860	     -7.49992509	    -11.64867443	      2.13612869	     -3.41663504	    -11.74523232	    -26.02217017	      3.88222197	    112.79473339	     91.25530582	    -29.66830891	    -30.72166410	     -5.38420462	    134.72437207	    101.77278896
      1.25000000	     -5.55163633	     -5.79679344	     12.41623125	     -0.04917909	      1.29761571	     -0.04527573	     23.41818229	      0.78035905	      4.06426157	     58.47820131	      1.02063715	     -1.24072095	    -18.27577338	     -7.49994145	     19.00022454	     -4.89781567	     -0.10149525	     50.93638557	      0.88900764	      0.14218019	    -14.55232867	     -7.49994145	    -12.87164771	      2.73780303	     -2.17267953	    -13.14374778	    -25.75996095	      2.49753750	    112.30950485	     92.04729344	    -27.09607088	    -29.45119966	     -3.24757140	    132.34949227	    100.98035302
      1.26666670	     -5.13129026	     -5.42241048	     12.15000240	     -0.04052932	      1.29470315	     -0.04291160	     26.92728126	      0.38151440	      4.42167881	     60.73089866	      1.05995414	     -2.13564996	    -18.26801076	     -7.49994552	     22.56900451	     -5.44526694	     -1.22158857	     52.24055895	      0.91176976	     -2.73297836	    -17.89994432	     -7.49994552	    -14.41719637	      2.39194520	     -1.78033322	    -11.58023599	    -25.98367515	      4.00645470	    111.18606804	     91.67412556	    -25.30465930	    -28.95733938	     -2.31802012	    130.54631082	    100.03168314
      1.28333330	     -4.97149853	     -5.22666074	     12.34500211	     -0.02197566	      1.28429011	     -0.05400578	     29.00261065	     -0.33596721	      4.17206317	     58.84452448	      1.02703070	     -2.13497512	    -18.49138988	     -7.49994899	     25.06374645	     -5.75806812	     -2.12713553	     52.64493949	      0.91882753	     -3.93466897	    -19.95384870	     -7.49994899	    -14.55729928	      2.56206240	     -1.93758264	     -9.47616292	    -26.00953410	      6.10607509	    108.76678878	     91.63314226	    -22.44678149	    -28.97940882	     -1.51025469	    128.58350114	     99.31349218
      1.30000000	     -4.80391285	     -5.02052744	     12.34964001	     -0.01385762	      1.27573195	     -0.05808168	     31.35542827	     -0.79010633	      4.70763899	     56.64247792	      0.98859774	     -2.20399277	    -18.93846160	     -7.49995171	     28.46348330	     -5.13185123	     -1.17734391	     53.01554643	      0.92529584	     -5.28222701	    -19.55778109	     -7.49995171	    -16.01307874	      2.38932133	     -2.22455922	     -7.93977566	    -26.47559015	      7.69875446	    107.92964610	     91.78770728	    -20.93667673	    -28.44864037	     -1.01995296	    128.24299610	     98.90659581
      1.31666670	     -4.34508497	     -5.03967266	     12.45425418	      0.01711291	      1.26803252	     -0.06435824	     31.96763405	     -1.53973761	      4.12453938	     53.18008404	      0.92816756	     -3.27846759	    -16.25641160	     -7.49995460	     29.16144138	     -5.48242906	     -0.45169704	     50.12591457	      0.87486225	     -6.03334039	    -16.06098676	     -7.49995460	    -16.78602633	      2.47230010	     -2.16337188	     -8.40687998	    -26.20543282	      8.02938327	    105.95440454	     91.31570839	    -21.15182872	    -27.36941985	     -0.43414538	    127.38138757	     98.11625944
      1.33333330	     -3.76321330	     -4.71499605	     12.85422597	      0.02622091	      1.25676029	     -0.06184613	     32.09948639	     -1.96494680	      4.11595457	     47.25201816	      0.82470330	     -4.86755634	    -11.88713132	     -7.49995789	     29.47031839	     -5.63222111	     -0.04413633	     46.58510460	      0.81306346	     -8.20343108	    -14.18877714	     -7.49995789	    -17.96751020	      2.14704357	     -2.59050944	     -9.11241788	    -25.39952123	      8.38525770	    104.46416021	     90.80933400	    -20.75938022	    -26.80646702	      0.04574060	    126.78272897	     97.18832865
      1.35000000	     -2.99484859	     -4.81253286	     12.35176756	      0.04084358	      1.23545193	     -0.06192780	     32.52891619	     -1.59776164	      4.14457406	     43.60275129	      0.76101157	     -7.91676401	    -10.05634074	     -7.49995934	     30.62891169	     -6.97143274	     -1.40113205	     43.89710594	      0.76614903	    -11.83618689	    -14.18668499	     -7.49995934	    -19.03909989	      2.37783295	     -2.36573846	     -7.99789442	    -24.96365450	      8.40984452	    103.19597625	     90.89246639	    -18.99327824	    -26.96150128	     -0.35699454	    125.84848315	     97.05736439
      1.36666670	     -2.76952330	     -4.40607986	     12.95435195	      0.06695710	      1.21685962	     -0.06484943	     32.07565004	     -2.05916545	      3.69661487	     38.87522927	      0.67850075	     -9.38511851	     -9.62949166	     -7.49996068	     31.55275749	     -7.22496889	     -2.36845292	     40.51675551	      0.70715079	    -13.54287155	    -12.09449697	     -7.49996068	    -19.75795481	      1.96091754	     -2.83425954	     -8.48400761	    -23.36103581	      7.54073762	    102.94058678	     90.97761944	    -18.39408209	    -27.60242517	     -0.88100357	    125.08279864	     96.92282421
